<svg xmlns="http://www.w3.org/2000/svg" version="1.1" xmlns:xlink="http://www.w3.org/1999/xlink" xmlns:svgjs="http://svgjs.com/svgjs" width="1000" height="1000"><svg id="SvgjsSvg1000" data-name="Layer 1" xmlns="http://www.w3.org/2000/svg" viewBox="0 0 1000 1000">
  <polygon points="500.12 142.91 747.3 142.91 747.3 0 500.12 142.91" fill="#a91e22" stroke-width="0"></polygon>
  <polygon points="500.12 142.91 747.3 142.91 747.3 285.82 500.12 142.91" fill="#c12026" stroke-width="0"></polygon>
  <polygon points="747.3 285.82 500.12 285.82 500.12 142.91 747.3 285.82" fill="#f47820" stroke-width="0"></polygon>
  <polygon points="500.12 428.72 747.3 428.72 747.3 285.82 500.12 428.72" fill="#60b946" stroke-width="0"></polygon>
  <polygon points="747.3 285.82 500.12 285.82 500.12 428.72 747.3 285.82" fill="#f8981d" stroke-width="0"></polygon>
  <polygon points="499.94 428.72 747.12 428.72 747.12 571.63 499.94 428.72" fill="#84c441" stroke-width="0"></polygon>
  <polygon points="747.12 571.63 499.94 571.63 499.94 428.72 747.12 571.63" fill="#488ecb" stroke-width="0"></polygon>
  <polygon points="500.3 714.18 747.47 714.18 747.47 571.28 500.3 714.18" fill="#e80d71" stroke-width="0"></polygon>
  <polygon points="747.12 571.63 499.94 571.63 499.94 714.54 747.12 571.63" fill="#4bace0" stroke-width="0"></polygon>
  <polygon points="500.3 714.18 747.47 714.18 747.47 857.09 500.3 714.18" fill="#ec148e" stroke-width="0"></polygon>
  <polygon points="747.47 857.09 500.3 857.09 500.3 714.18 747.47 857.09" fill="#20b78e" stroke-width="0"></polygon>
  <polygon points="747.47 857.09 500.3 857.09 500.3 1000 747.47 857.09" fill="#46bea4" stroke-width="0"></polygon>
  <polygon points="499.59 714.18 252.41 714.18 252.41 571.28 499.59 714.18" fill="#0e1b2b" stroke-width="0"></polygon>
  <polygon points="252.77 856.74 499.94 856.74 499.94 713.83 252.77 856.74" fill="#73848c" stroke-width="0"></polygon>
  <polygon points="499.59 714.18 252.41 714.18 252.41 857.09 499.59 714.18" fill="#1a2e46" stroke-width="0"></polygon>
  <polygon points="252.77 856.74 499.94 856.74 499.94 999.65 252.77 856.74" fill="#92a1aa" stroke-width="0"></polygon>
</svg><style>@media (prefers-color-scheme: light) { :root { filter: none; } }
</style></svg>